<svg width="35" height="35" viewBox="0 0 35 35" fill="none" xmlns="http://www.w3.org/2000/svg">
<path d="M24.7917 2.91669H10.2083C6.18127 2.91669 2.91667 6.18128 2.91667 10.2084V24.7917C2.91667 28.8187 6.18127 32.0834 10.2083 32.0834H24.7917C28.8187 32.0834 32.0833 28.8187 32.0833 24.7917V10.2084C32.0833 6.18128 28.8187 2.91669 24.7917 2.91669Z" stroke="black" stroke-width="2" stroke-linecap="round" stroke-linejoin="round"/>
<path d="M23.3333 16.5813C23.5133 17.7949 23.3059 19.0345 22.7408 20.1236C22.1757 21.2126 21.2816 22.0958 20.1857 22.6475C19.0897 23.199 17.8477 23.3911 16.6362 23.1961C15.4249 23.0013 14.3058 22.4293 13.4382 21.5618C12.5707 20.6941 11.9987 19.5751 11.8038 18.3636C11.6088 17.1522 11.8009 15.9103 12.3525 14.8144C12.9041 13.7183 13.7873 12.8242 14.8763 12.2591C15.9654 11.694 17.205 11.4867 18.4188 11.6667C19.6567 11.8503 20.8028 12.4271 21.6878 13.3121C22.5728 14.1971 23.1497 15.3433 23.3333 16.5813Z" stroke="black" stroke-width="2" stroke-linecap="round" stroke-linejoin="round"/>
<path d="M25.5208 9.47919H25.535" stroke="black" stroke-width="2" stroke-linecap="round" stroke-linejoin="round"/>
</svg>
