<svg width="189" height="44" viewBox="0 0 189 44" fill="none" xmlns="http://www.w3.org/2000/svg">
<path d="M5.76 32.36C4.82667 32.3333 3.98667 32.24 3.24 32.08C2.52 31.92 1.90667 31.6667 1.4 31.32C0.466667 30.7067 0 29.9333 0 29C0 28.4933 0.133333 28.0133 0.4 27.56C1.57333 25.3467 4.57333 24.24 9.4 24.24C11.1067 24.24 12.3067 24.4133 13 24.76C13.3467 24.92 13.52 25.0667 13.52 25.2C13.52 25.2533 13.4667 25.28 13.36 25.28C13.2533 25.28 13.12 25.24 12.96 25.16C12.8 25.08 12.4267 25.0133 11.84 24.96C11.28 24.9067 10.4933 24.88 9.48 24.88C5.56 24.88 2.92 25.84 1.56 27.76C1.24 28.24 1.08 28.7067 1.08 29.16C1.08 29.8267 1.4 30.36 2.04 30.76C2.44 31.0267 2.93333 31.2133 3.52 31.32C4.13333 31.4533 4.84 31.52 5.64 31.52C9.34667 31.52 12.48 30.6 15.04 28.76C16.1867 27.9333 17.2267 26.8933 18.16 25.64C19.12 24.3867 19.9867 22.92 20.76 21.24C20.5733 21.1867 20.36 21.16 20.12 21.16C19.88 21.1333 19.5867 21.1333 19.24 21.16C17.7467 23.9867 15.96 26.24 13.88 27.92C11.5333 29.84 9.08 30.7333 6.52 30.6C6.44 30.5467 6.4 30.5067 6.4 30.48C6.4 30.3733 6.45333 30.32 6.56 30.32C8.96 30.3733 11.2533 29.48 13.44 27.64C15.44 25.96 17.1333 23.8 18.52 21.16C17.6667 21.2133 16.7333 21.3067 15.72 21.44C14.7067 21.5467 13.7733 21.68 12.92 21.84C12.0667 21.9733 11.4533 22.1067 11.08 22.24C10.9733 22.2667 10.8667 22.2933 10.76 22.32C10.68 22.32 10.6133 22.32 10.56 22.32C10.4533 22.32 10.4 22.28 10.4 22.2C10.4 22.1467 10.5067 21.9867 10.72 21.72C11.04 21.3733 11.3333 21.12 11.6 20.96C12.3733 20.56 14.0533 20.36 16.64 20.36C17.0133 20.36 17.3867 20.36 17.76 20.36C18.1333 20.36 18.52 20.3733 18.92 20.4C20.2533 17.6267 20.9333 15.1067 20.96 12.84C20.08 12.7067 19.2133 12.6133 18.36 12.56C17.5067 12.48 16.6667 12.44 15.84 12.44C15.5467 12.44 15.24 12.44 14.92 12.44C14.6267 12.44 14.3333 12.4533 14.04 12.48C14.0133 12.6667 13.9867 12.84 13.96 13C13.96 13.16 13.96 13.32 13.96 13.48C13.96 15.8 14.92 17.6267 16.84 18.96C16.8933 19.0133 16.92 19.0533 16.92 19.08C16.92 19.16 16.8933 19.2133 16.84 19.24C16.8133 19.24 16.7733 19.2133 16.72 19.16C15.6 18.3867 14.7467 17.48 14.16 16.44C13.6 15.4 13.32 14.3333 13.32 13.24C13.32 13.1067 13.32 12.9867 13.32 12.88C13.32 12.7733 13.3333 12.6667 13.36 12.56C11.4933 12.72 9.8 13.0667 8.28 13.6C6.78667 14.1067 5.6 14.7333 4.72 15.48C3.97333 16.12 3.6 16.72 3.6 17.28C3.6 18 4.10667 18.36 5.12 18.36C5.57333 18.36 6.05333 18.28 6.56 18.12L6.92 18.08C7.08 18.08 7.16 18.12 7.16 18.2C7.16 18.3333 6.98667 18.4533 6.64 18.56C6.05333 18.7467 5.45333 18.84 4.84 18.84C3.61333 18.84 2.81333 18.44 2.44 17.64C2.41333 17.5067 2.37333 17.3867 2.32 17.28C2.29333 17.1467 2.28 17.0267 2.28 16.92C2.28 16.28 2.6 15.6 3.24 14.88C4.25333 13.7867 5.82667 12.88 7.96 12.16C8.73333 11.8933 9.58667 11.7067 10.52 11.6C11.4533 11.4667 12.48 11.3867 13.6 11.36C13.9467 10.2133 14.5333 9.30667 15.36 8.64C16.1333 8.02667 16.9867 7.72 17.92 7.72C18.88 7.72 19.6933 8.08 20.36 8.8C21.1067 9.6 21.5067 10.7067 21.56 12.12C22.68 12.3067 23.76 12.5467 24.8 12.84C25.0667 12.5733 25.3733 12.4133 25.72 12.36C26.0667 12.36 26.24 12.52 26.24 12.84C26.24 12.8933 26.2267 12.9467 26.2 13C26.2 13.0533 26.1867 13.1067 26.16 13.16L26.12 13.24L28.24 13.88C29.04 14.12 29.7467 14.28 30.36 14.36C30.7333 14.4133 31.0267 14.4533 31.24 14.48C31.4533 14.5067 31.5867 14.52 31.64 14.52C32.12 14.52 32.4533 14.36 32.64 14.04C32.6933 13.9867 32.7467 13.96 32.8 13.96C32.96 13.96 33.04 14.0267 33.04 14.16C33.04 14.2133 33.0267 14.2533 33 14.28C32.6267 14.8133 32 15.08 31.12 15.08C30.3467 15.08 29.44 14.9467 28.4 14.68L25.76 13.92L22.52 20.68L24.36 21.04C25 21.12 25.5333 21.2667 25.96 21.48C26.1733 21.6133 26.28 21.7067 26.28 21.76C26.28 21.8133 26.1733 21.84 25.96 21.84C25.6133 21.84 25.0133 21.76 24.16 21.6C23.7067 21.4933 23.32 21.4267 23 21.4C22.68 21.3467 22.4533 21.3067 22.32 21.28C20.7467 24.8533 18.5067 27.6133 15.6 29.56C12.6933 31.48 9.41333 32.4133 5.76 32.36ZM20.96 12C20.9333 10.7733 20.6 9.76 19.96 8.96C19.4 8.29333 18.72 7.96 17.92 7.96C17.1467 7.96 16.44 8.24 15.8 8.8C15.1067 9.41333 14.6 10.2667 14.28 11.36C15.3467 11.3867 16.4267 11.4533 17.52 11.56C18.64 11.64 19.7867 11.7867 20.96 12ZM21.16 20.56C21.2667 20.4 21.4267 20.04 21.64 19.48C21.88 18.92 22.1733 18.1733 22.52 17.24C22.8667 16.36 23.1867 15.6133 23.48 15C23.7733 14.36 24.04 13.8533 24.28 13.48C23.8533 13.3733 23.4133 13.28 22.96 13.2C22.5067 13.0933 22.0533 13.0133 21.6 12.96C21.5467 15.28 20.8667 17.7733 19.56 20.44L21.16 20.56ZM28.0491 30.72C26.9557 30.72 26.4091 30.08 26.4091 28.8C26.4091 27.84 26.6491 26.72 27.1291 25.44C27.1024 25.3067 27.0757 25.1733 27.0491 25.04C27.0491 24.88 27.0491 24.72 27.0491 24.56C27.0491 23.1467 27.7291 22.3867 29.0891 22.28C29.4357 21.8533 29.7557 21.64 30.0491 21.64C30.5291 21.64 30.7691 21.7733 30.7691 22.04C30.7691 22.12 30.7291 22.2 30.6491 22.28L30.5291 22.4C31.1424 22.5867 31.6491 22.9333 32.0491 23.44C32.4491 23.9467 32.6491 24.4933 32.6491 25.08C32.6491 26.12 32.3691 27.1467 31.8091 28.16L31.7291 28.24C33.3024 28.1867 34.5691 27.6667 35.5291 26.68C35.6091 26.6 35.7024 26.56 35.8091 26.56C35.8891 26.56 35.9291 26.6267 35.9291 26.76C35.9291 26.8933 35.8491 27.0267 35.6891 27.16C34.4357 28.2533 32.9957 28.8 31.3691 28.8C30.9157 29.36 30.3824 29.8133 29.7691 30.16C29.1557 30.5333 28.5824 30.72 28.0491 30.72ZM30.9291 28.2C31.5157 27.1067 31.8091 26.0533 31.8091 25.04C31.8091 24.4267 31.6624 23.9067 31.3691 23.48C31.0757 23.0533 30.6757 22.8133 30.1691 22.76C29.3691 23.64 28.7291 24.6667 28.2491 25.84C28.5691 27.2267 29.4624 28.0133 30.9291 28.2ZM28.6091 30C29.3557 30 30.0224 29.5867 30.6091 28.76C29.3824 28.6 28.4491 28.0933 27.8091 27.24C27.7557 27.5067 27.7024 27.76 27.6491 28C27.6224 28.24 27.6091 28.4533 27.6091 28.64C27.6091 29.5467 27.9424 30 28.6091 30ZM35.1181 30.04C34.9315 30.04 34.7715 29.96 34.6381 29.8C34.5048 29.64 34.4515 29.5067 34.4781 29.4L35.6781 26.64C36.3715 25.0133 36.7181 24.0267 36.7181 23.68C36.7981 23.5733 37.0648 23.4133 37.5181 23.2C37.6248 23.1467 37.7181 23.1067 37.7981 23.08C37.8781 23.0533 37.9581 23.04 38.0381 23.04C38.2248 23.04 38.3181 23.16 38.3181 23.4C38.1315 23.9333 37.8515 24.6267 37.4781 25.48C37.1315 26.3067 36.6781 27.3067 36.1181 28.48L40.3981 23.88C40.7715 23.48 41.0515 23.28 41.2381 23.28C41.3715 23.28 41.4381 23.36 41.4381 23.52C41.4381 23.5733 41.4248 23.64 41.3981 23.72C41.3981 23.7733 41.3848 23.84 41.3581 23.92C40.7981 25.8667 40.5181 27.2 40.5181 27.92C40.5181 28.8267 40.8248 29.28 41.4381 29.28C41.9981 29.28 42.6648 28.9733 43.4381 28.36C43.5715 28.2533 43.7715 28.0667 44.0381 27.8C44.3315 27.5333 44.6781 27.1867 45.0781 26.76C45.1848 26.6533 45.2915 26.6 45.3981 26.6C45.4781 26.6 45.5181 26.6533 45.5181 26.76C45.5448 26.8133 45.5181 26.9067 45.4381 27.04C43.7581 28.9067 42.2648 29.84 40.9581 29.84C39.7848 29.84 39.1981 28.92 39.1981 27.08C39.1981 26.8667 39.1981 26.6533 39.1981 26.44C39.2248 26.2267 39.2515 26 39.2781 25.76L37.3981 27.56C37.1848 27.7467 36.9715 27.9467 36.7581 28.16C36.5715 28.3733 36.3981 28.5867 36.2381 28.8L35.4381 29.8C35.3581 29.96 35.2515 30.04 35.1181 30.04ZM45.3275 30.04C44.7142 30.04 44.4075 29.64 44.4075 28.84C44.4075 28.2 44.6475 27.5067 45.1275 26.76C45.6608 25.9067 46.3808 25.1067 47.2875 24.36C48.4342 23.3733 49.3808 22.92 50.1275 23C50.8475 21.0533 51.6208 19.2667 52.4475 17.64C53.6208 15.3467 54.6875 13.8933 55.6475 13.28C56.1008 12.9867 56.5675 12.84 57.0475 12.84C57.8208 12.84 58.2075 13.24 58.2075 14.04C58.2075 15.4533 57.3542 17.1867 55.6475 19.24C55.0608 19.9867 54.3942 20.72 53.6475 21.44C52.9275 22.16 52.1408 22.8933 51.2875 23.64C50.9675 24.4667 50.7142 25.2133 50.5275 25.88C50.3675 26.5467 50.2742 27.1467 50.2475 27.68C50.3542 28.7467 50.8475 29.28 51.7275 29.28C52.7675 29.28 54.0608 28.4667 55.6075 26.84C55.7408 26.68 55.8475 26.6 55.9275 26.6C56.0075 26.6 56.0475 26.6533 56.0475 26.76C56.0475 26.8667 56.0075 26.9867 55.9275 27.12C54.1408 29.04 52.5808 30 51.2475 30C50.6075 30 50.0875 29.72 49.6875 29.16C49.2608 28.5733 49.0342 27.8667 49.0075 27.04C48.3408 27.92 47.6742 28.6533 47.0075 29.24C46.3142 29.7733 45.7542 30.04 45.3275 30.04ZM51.6075 22.84C52.9675 21.5333 54.1675 20.12 55.2075 18.6C56.5408 16.68 57.2875 15.1733 57.4475 14.08V13.88C57.4475 13.56 57.3408 13.4 57.1275 13.4C56.5942 13.4 56.0475 13.8933 55.4875 14.88C54.7675 16.1333 54.0875 17.4267 53.4475 18.76C52.8075 20.0933 52.1942 21.4533 51.6075 22.84ZM46.1675 28.84C46.4608 28.84 46.8475 28.64 47.3275 28.24C48.2075 27.4933 48.7808 26.76 49.0475 26.04C49.4742 24.7333 49.7542 24 49.8875 23.84C49.1675 23.7867 48.4475 24.0667 47.7275 24.68C47.0608 25.1867 46.5275 25.8667 46.1275 26.72C45.8342 27.2533 45.6875 27.7333 45.6875 28.16C45.6875 28.6133 45.8475 28.84 46.1675 28.84ZM55.8744 30.04C55.261 30.04 54.9544 29.64 54.9544 28.84C54.9544 28.2 55.1944 27.5067 55.6744 26.76C56.7944 25.08 58.0077 23.9467 59.3144 23.36C59.8744 23.0933 60.421 22.96 60.9544 22.96C61.221 22.96 61.5144 23.04 61.8344 23.2C62.1544 23.3333 62.3144 23.5333 62.3144 23.8C62.3144 23.9333 62.221 24.0133 62.0344 24.04C61.9277 24.0667 61.8477 24.0933 61.7944 24.12C61.7677 24.1467 61.741 24.1733 61.7144 24.2C61.101 25.3467 60.7944 26.4133 60.7944 27.4C60.7944 28.6533 61.2877 29.28 62.2744 29.28C63.3144 29.28 64.6077 28.4667 66.1544 26.84C66.2877 26.68 66.3944 26.6 66.4744 26.6C66.5544 26.6 66.5944 26.6533 66.5944 26.76C66.5944 26.8667 66.5544 26.9867 66.4744 27.12C64.6877 29.04 63.1277 30 61.7944 30C61.1544 30 60.6344 29.72 60.2344 29.16C59.8077 28.5733 59.581 27.8667 59.5544 27.04C58.8877 27.92 58.221 28.6533 57.5544 29.24C56.861 29.7733 56.301 30.04 55.8744 30.04ZM56.7144 28.84C57.0077 28.84 57.3944 28.64 57.8744 28.24C58.301 27.8667 58.661 27.5067 58.9544 27.16C59.2477 26.7867 59.461 26.4133 59.5944 26.04C59.6477 25.5867 59.7277 25.1867 59.8344 24.84C59.9677 24.4667 60.101 24.1333 60.2344 23.84C58.8477 23.8133 57.661 24.7733 56.6744 26.72C56.381 27.2533 56.2344 27.7333 56.2344 28.16C56.2344 28.6133 56.3944 28.84 56.7144 28.84ZM68.5013 30C67.4346 29.9733 66.7813 29.4267 66.5413 28.36C66.5146 28.1733 66.4879 28 66.4613 27.84C66.4613 27.68 66.4613 27.52 66.4613 27.36C66.4613 26.3467 66.7413 25.1867 67.3013 23.88C66.9546 23.9067 66.7013 23.92 66.5413 23.92C66.3813 23.92 66.3279 23.9333 66.3813 23.96C65.9546 23.9067 65.7412 23.7333 65.7412 23.44V23.36C65.7412 23.1733 65.9279 23.08 66.3013 23.08L67.0213 23.04H67.7413C67.8479 22.8267 68.0079 22.52 68.2213 22.12C68.4346 21.6933 68.7146 21.1867 69.0613 20.6C69.2479 20.28 69.4613 19.92 69.7013 19.52C69.9679 19.12 70.2479 18.6933 70.5413 18.24C70.9146 17.92 71.3679 17.76 71.9013 17.76C72.3813 17.76 72.6213 17.88 72.6213 18.12C72.6213 18.1733 72.5946 18.2267 72.5413 18.28C72.1946 18.76 71.7546 19.4 71.2213 20.2C70.6879 21 70.0613 21.9467 69.3413 23.04H73.2613C73.5013 23.12 73.6213 23.2267 73.6213 23.36C73.6213 23.6 73.3279 23.76 72.7413 23.84C72.6346 23.8667 72.2613 23.88 71.6213 23.88C70.9813 23.88 70.0746 23.88 68.9013 23.88C68.0746 25.4267 67.6613 26.68 67.6613 27.64C67.6613 28.7333 68.1279 29.28 69.0613 29.28C69.5146 29.28 70.0079 29.1333 70.5413 28.84C70.9146 28.6267 71.3013 28.36 71.7013 28.04C72.1013 27.6933 72.5146 27.2933 72.9413 26.84C73.0746 26.68 73.1946 26.6 73.3013 26.6C73.4079 26.6 73.4613 26.6533 73.4613 26.76C73.4613 26.8933 73.4213 27 73.3413 27.08C71.4746 29.0533 69.8613 30.0267 68.5013 30ZM78.0172 20C77.7772 20 77.5505 19.9067 77.3372 19.72C77.1505 19.5067 77.0572 19.28 77.0572 19.04C77.0572 18.72 77.2039 18.4533 77.4972 18.24C77.7105 18.0533 77.9505 17.96 78.2172 17.96C78.8305 17.96 79.1372 18.2267 79.1372 18.76C79.1372 19.5867 78.7639 20 78.0172 20ZM75.3372 30C73.7905 29.9733 73.0972 28.9067 73.2572 26.8C73.2839 25.8933 73.7772 24.7333 74.7372 23.32C74.8972 23.0267 75.2439 22.88 75.7772 22.88C76.1772 22.88 76.3772 23 76.3772 23.24L76.3372 23.44L75.3372 25.16C74.9372 25.9067 74.7239 26.48 74.6972 26.88C74.6705 27.0133 74.6439 27.16 74.6172 27.32C74.6172 27.4533 74.6172 27.5867 74.6172 27.72C74.6172 28.8133 75.0039 29.36 75.7772 29.36C76.8439 29.36 78.1772 28.52 79.7772 26.84C79.9372 26.6533 80.0705 26.56 80.1772 26.56C80.2572 26.5867 80.2972 26.6533 80.2972 26.76C80.2972 26.84 80.2572 26.9467 80.1772 27.08C78.3105 29.08 76.6972 30.0533 75.3372 30ZM81.2131 30.72C80.1198 30.72 79.5731 30.08 79.5731 28.8C79.5731 27.84 79.8131 26.72 80.2931 25.44C80.2665 25.3067 80.2398 25.1733 80.2131 25.04C80.2131 24.88 80.2131 24.72 80.2131 24.56C80.2131 23.1467 80.8931 22.3867 82.2531 22.28C82.5998 21.8533 82.9198 21.64 83.2131 21.64C83.6931 21.64 83.9331 21.7733 83.9331 22.04C83.9331 22.12 83.8931 22.2 83.8131 22.28L83.6931 22.4C84.3065 22.5867 84.8131 22.9333 85.2131 23.44C85.6131 23.9467 85.8131 24.4933 85.8131 25.08C85.8131 26.12 85.5331 27.1467 84.9731 28.16L84.8931 28.24C86.4665 28.1867 87.7331 27.6667 88.6931 26.68C88.7731 26.6 88.8665 26.56 88.9731 26.56C89.0531 26.56 89.0931 26.6267 89.0931 26.76C89.0931 26.8933 89.0131 27.0267 88.8531 27.16C87.5998 28.2533 86.1598 28.8 84.5331 28.8C84.0798 29.36 83.5465 29.8133 82.9331 30.16C82.3198 30.5333 81.7465 30.72 81.2131 30.72ZM84.0931 28.2C84.6798 27.1067 84.9731 26.0533 84.9731 25.04C84.9731 24.4267 84.8265 23.9067 84.5331 23.48C84.2398 23.0533 83.8398 22.8133 83.3331 22.76C82.5331 23.64 81.8931 24.6667 81.4131 25.84C81.7331 27.2267 82.6265 28.0133 84.0931 28.2ZM81.7731 30C82.5198 30 83.1865 29.5867 83.7731 28.76C82.5465 28.6 81.6131 28.0933 80.9731 27.24C80.9198 27.5067 80.8665 27.76 80.8131 28C80.7865 28.24 80.7731 28.4533 80.7731 28.64C80.7731 29.5467 81.1065 30 81.7731 30ZM88.2822 30.04C88.0955 30.04 87.9355 29.96 87.8022 29.8C87.6689 29.64 87.6155 29.5067 87.6422 29.4L88.8422 26.64C89.5355 25.0133 89.8822 24.0267 89.8822 23.68C89.9622 23.5733 90.2289 23.4133 90.6822 23.2C90.7889 23.1467 90.8822 23.1067 90.9622 23.08C91.0422 23.0533 91.1222 23.04 91.2022 23.04C91.3889 23.04 91.4822 23.16 91.4822 23.4C91.2955 23.9333 91.0155 24.6267 90.6422 25.48C90.2955 26.3067 89.8422 27.3067 89.2822 28.48L93.5622 23.88C93.9355 23.48 94.2155 23.28 94.4022 23.28C94.5355 23.28 94.6022 23.36 94.6022 23.52C94.6022 23.5733 94.5889 23.64 94.5622 23.72C94.5622 23.7733 94.5489 23.84 94.5222 23.92C93.9622 25.8667 93.6822 27.2 93.6822 27.92C93.6822 28.8267 93.9889 29.28 94.6022 29.28C95.1622 29.28 95.8289 28.9733 96.6022 28.36C96.7355 28.2533 96.9355 28.0667 97.2022 27.8C97.4955 27.5333 97.8422 27.1867 98.2422 26.76C98.3489 26.6533 98.4555 26.6 98.5622 26.6C98.6422 26.6 98.6822 26.6533 98.6822 26.76C98.7089 26.8133 98.6822 26.9067 98.6022 27.04C96.9222 28.9067 95.4289 29.84 94.1222 29.84C92.9489 29.84 92.3622 28.92 92.3622 27.08C92.3622 26.8667 92.3622 26.6533 92.3622 26.44C92.3889 26.2267 92.4155 26 92.4422 25.76L90.5622 27.56C90.3489 27.7467 90.1355 27.9467 89.9222 28.16C89.7355 28.3733 89.5622 28.5867 89.4022 28.8L88.6022 29.8C88.5222 29.96 88.4155 30.04 88.2822 30.04ZM119.871 31.28C117.924 31.28 116.257 30.9733 114.871 30.36C113.484 29.7733 112.417 28.96 111.671 27.92C110.924 26.8533 110.551 25.6533 110.551 24.32C110.551 23.04 110.911 21.68 111.631 20.24C110.297 19.44 109.631 18.2667 109.631 16.72C109.631 15.2 110.271 13.9867 111.551 13.08C112.804 12.1467 114.351 11.68 116.191 11.68C117.577 11.68 119.004 11.92 120.471 12.4C123.751 10.8533 127.097 10.08 130.511 10.08C132.351 10.08 133.737 10.4667 134.671 11.24C135.444 11.88 135.831 12.7067 135.831 13.72C135.831 14.44 135.657 15.1067 135.311 15.72C134.777 16.7067 133.977 17.64 132.911 18.52C131.871 19.3733 130.564 20.1733 128.991 20.92L128.951 20.96C128.791 21.0133 128.684 21.04 128.631 21.04C128.577 21.04 128.551 21.0133 128.551 20.96C128.551 20.8533 128.617 20.7467 128.751 20.64C128.884 20.3733 128.951 20.12 128.951 19.88C128.951 19.1067 128.471 18.1867 127.511 17.12C127.164 16.7467 126.831 16.4133 126.511 16.12C126.191 15.8267 125.871 15.5733 125.551 15.36C124.884 14.9067 124.217 14.4933 123.551 14.12C122.884 13.7467 122.204 13.4267 121.511 13.16C118.204 14.6 115.617 16.56 113.751 19.04C113.564 19.2267 113.391 19.4267 113.231 19.64C113.097 19.8533 112.964 20.0667 112.831 20.28C113.951 20.7333 115.097 20.96 116.271 20.96C117.791 20.96 118.684 20.68 118.951 20.12C118.951 20.0667 118.977 20.04 119.031 20.04C119.111 20.04 119.164 20.0667 119.191 20.12C119.244 20.1733 119.244 20.2267 119.191 20.28C119.031 20.6 118.631 20.8533 117.991 21.04C117.377 21.2267 116.657 21.32 115.831 21.32C114.684 21.32 113.591 21.1333 112.551 20.76C111.724 22.1467 111.311 23.4667 111.311 24.72C111.311 26.4267 112.111 27.7867 113.711 28.8C115.311 29.7867 117.457 30.28 120.151 30.28C120.817 30.28 121.511 30.24 122.231 30.16C124.257 29.9467 125.884 29.7067 127.111 29.44C129.431 28.8267 131.231 27.92 132.511 26.72C132.617 26.6133 132.697 26.56 132.751 26.56C132.857 26.56 132.911 26.64 132.911 26.8C132.884 26.88 132.817 27 132.711 27.16C131.617 28.0933 129.884 28.9867 127.511 29.84C126.524 30.1867 125.604 30.4533 124.751 30.64C123.897 30.8533 123.084 31.0133 122.311 31.12C121.884 31.1733 121.457 31.2133 121.031 31.24C120.631 31.2667 120.244 31.28 119.871 31.28ZM129.391 20.24C129.977 19.92 130.484 19.6267 130.911 19.36C131.364 19.0933 131.724 18.8667 131.991 18.68C133.111 17.8267 133.911 16.8933 134.391 15.88C134.657 15.3467 134.791 14.8133 134.791 14.28C134.791 13.2933 134.311 12.5467 133.351 12.04C132.444 11.56 131.204 11.32 129.631 11.32C127.231 11.32 124.671 11.8667 121.951 12.96C122.617 13.2267 123.257 13.5467 123.871 13.92C124.511 14.2667 125.137 14.6667 125.751 15.12C126.604 15.7333 127.377 16.4267 128.071 17.2C128.977 18.2133 129.431 19.0933 129.431 19.84C129.431 19.8933 129.431 19.96 129.431 20.04C129.431 20.12 129.417 20.1867 129.391 20.24ZM111.871 19.76C112.031 19.4667 112.204 19.1867 112.391 18.92C112.577 18.6267 112.777 18.3467 112.991 18.08C114.724 15.92 117.031 14.1067 119.911 12.64C118.711 12.32 117.524 12.16 116.351 12.16C114.644 12.16 113.137 12.5867 111.831 13.44C110.631 14.24 110.031 15.2933 110.031 16.6C110.031 17.96 110.644 19.0133 111.871 19.76ZM132.671 30.04C132.058 30.04 131.751 29.64 131.751 28.84C131.751 28.2 131.991 27.5067 132.471 26.76C133.591 25.08 134.805 23.9467 136.111 23.36C136.671 23.0933 137.218 22.96 137.751 22.96C138.018 22.96 138.311 23.04 138.631 23.2C138.951 23.3333 139.111 23.5333 139.111 23.8C139.111 23.9333 139.018 24.0133 138.831 24.04C138.725 24.0667 138.645 24.0933 138.591 24.12C138.565 24.1467 138.538 24.1733 138.511 24.2C137.898 25.3467 137.591 26.4133 137.591 27.4C137.591 28.6533 138.085 29.28 139.071 29.28C140.111 29.28 141.405 28.4667 142.951 26.84C143.085 26.68 143.191 26.6 143.271 26.6C143.351 26.6 143.391 26.6533 143.391 26.76C143.391 26.8667 143.351 26.9867 143.271 27.12C141.485 29.04 139.925 30 138.591 30C137.951 30 137.431 29.72 137.031 29.16C136.605 28.5733 136.378 27.8667 136.351 27.04C135.685 27.92 135.018 28.6533 134.351 29.24C133.658 29.7733 133.098 30.04 132.671 30.04ZM133.511 28.84C133.805 28.84 134.191 28.64 134.671 28.24C135.098 27.8667 135.458 27.5067 135.751 27.16C136.045 26.7867 136.258 26.4133 136.391 26.04C136.445 25.5867 136.525 25.1867 136.631 24.84C136.765 24.4667 136.898 24.1333 137.031 23.84C135.645 23.8133 134.458 24.7733 133.471 26.72C133.178 27.2533 133.031 27.7333 133.031 28.16C133.031 28.6133 133.191 28.84 133.511 28.84ZM148.458 30.64C147.258 30.64 146.658 29.9867 146.658 28.68C146.658 27.7733 147.045 26.6133 147.818 25.2C147.418 25.2533 147.031 25.12 146.658 24.8C146.311 24.48 146.138 24.1067 146.138 23.68C145.445 24.9867 144.405 26.2133 143.018 27.36C142.911 27.4667 142.778 27.52 142.618 27.52C142.511 27.52 142.458 27.48 142.458 27.4C142.458 27.2933 142.538 27.1867 142.698 27.08C143.898 25.9867 144.925 24.64 145.778 23.04L145.698 22.64C145.671 22.5067 145.645 22.3867 145.618 22.28C145.618 22.1467 145.618 22.0267 145.618 21.92C145.618 21.28 145.791 20.7733 146.138 20.4C146.458 20.0533 146.818 19.88 147.218 19.88C147.725 19.88 147.978 20.1467 147.978 20.68C147.978 21.3467 147.538 22.2 146.658 23.24V23.32C146.658 23.7733 146.925 24 147.458 24C147.671 24 147.925 23.9467 148.218 23.84C148.538 23.76 148.765 23.72 148.898 23.72C149.378 23.72 149.618 23.9733 149.618 24.48C149.618 24.6667 149.551 24.8667 149.418 25.08C149.231 25.3467 148.991 25.8267 148.698 26.52C148.351 27.2667 148.151 27.8133 148.098 28.16C148.071 28.2667 148.045 28.3733 148.018 28.48C148.018 28.5867 148.018 28.6933 148.018 28.8C148.018 29.4933 148.338 29.84 148.978 29.84C149.778 29.84 150.791 29.48 152.018 28.76C152.551 28.4667 153.031 28.16 153.458 27.84C153.885 27.52 154.271 27.1867 154.618 26.84C154.778 26.68 154.911 26.6 155.018 26.6C155.098 26.6 155.138 26.6533 155.138 26.76C155.138 26.8933 155.058 27.04 154.898 27.2C153.031 28.8 151.458 29.8267 150.178 30.28C149.511 30.52 148.938 30.64 148.458 30.64ZM157.017 30C155.95 29.9733 155.297 29.4267 155.057 28.36C155.03 28.1733 155.004 28 154.977 27.84C154.977 27.68 154.977 27.52 154.977 27.36C154.977 26.3467 155.257 25.1867 155.817 23.88C155.47 23.9067 155.217 23.92 155.057 23.92C154.897 23.92 154.844 23.9333 154.897 23.96C154.47 23.9067 154.257 23.7333 154.257 23.44V23.36C154.257 23.1733 154.444 23.08 154.817 23.08L155.537 23.04H156.257C156.364 22.8267 156.524 22.52 156.737 22.12C156.95 21.6933 157.23 21.1867 157.577 20.6C157.764 20.28 157.977 19.92 158.217 19.52C158.484 19.12 158.764 18.6933 159.057 18.24C159.43 17.92 159.884 17.76 160.417 17.76C160.897 17.76 161.137 17.88 161.137 18.12C161.137 18.1733 161.11 18.2267 161.057 18.28C160.71 18.76 160.27 19.4 159.737 20.2C159.204 21 158.577 21.9467 157.857 23.04H161.777C162.017 23.12 162.137 23.2267 162.137 23.36C162.137 23.6 161.844 23.76 161.257 23.84C161.15 23.8667 160.777 23.88 160.137 23.88C159.497 23.88 158.59 23.88 157.417 23.88C156.59 25.4267 156.177 26.68 156.177 27.64C156.177 28.7333 156.644 29.28 157.577 29.28C158.03 29.28 158.524 29.1333 159.057 28.84C159.43 28.6267 159.817 28.36 160.217 28.04C160.617 27.6933 161.03 27.2933 161.457 26.84C161.59 26.68 161.71 26.6 161.817 26.6C161.924 26.6 161.977 26.6533 161.977 26.76C161.977 26.8933 161.937 27 161.857 27.08C159.99 29.0533 158.377 30.0267 157.017 30ZM166.533 20C166.293 20 166.066 19.9067 165.853 19.72C165.666 19.5067 165.573 19.28 165.573 19.04C165.573 18.72 165.719 18.4533 166.013 18.24C166.226 18.0533 166.466 17.96 166.733 17.96C167.346 17.96 167.653 18.2267 167.653 18.76C167.653 19.5867 167.279 20 166.533 20ZM163.853 30C162.306 29.9733 161.613 28.9067 161.773 26.8C161.799 25.8933 162.293 24.7333 163.253 23.32C163.413 23.0267 163.759 22.88 164.293 22.88C164.693 22.88 164.893 23 164.893 23.24L164.853 23.44L163.853 25.16C163.453 25.9067 163.239 26.48 163.213 26.88C163.186 27.0133 163.159 27.16 163.133 27.32C163.133 27.4533 163.133 27.5867 163.133 27.72C163.133 28.8133 163.519 29.36 164.293 29.36C165.359 29.36 166.693 28.52 168.293 26.84C168.453 26.6533 168.586 26.56 168.693 26.56C168.773 26.5867 168.813 26.6533 168.813 26.76C168.813 26.84 168.773 26.9467 168.693 27.08C166.826 29.08 165.213 30.0533 163.853 30ZM170.529 30.36C168.982 30.36 168.209 29.5067 168.209 27.8C168.209 27.2133 168.422 26.48 168.849 25.6C169.275 24.6933 169.795 23.9467 170.409 23.36C171.155 22.6667 171.835 22.32 172.449 22.32C173.275 22.32 173.689 22.7333 173.689 23.56C173.689 24.0933 173.475 24.6267 173.049 25.16C172.249 26.12 171.129 26.7733 169.689 27.12C169.662 27.3067 169.635 27.48 169.609 27.64C169.609 27.7733 169.609 27.9067 169.609 28.04C169.609 29.16 170.129 29.72 171.169 29.72C171.995 29.72 173.035 29.3733 174.289 28.68C174.822 28.3867 175.302 28.08 175.729 27.76C176.155 27.44 176.515 27.1333 176.809 26.84C177.129 26.4667 177.289 26.44 177.289 26.76C177.289 26.8933 177.235 27.0133 177.129 27.12C176.835 27.4667 176.449 27.8267 175.969 28.2C175.515 28.5467 174.955 28.8933 174.289 29.24C172.875 29.9867 171.622 30.36 170.529 30.36ZM169.849 26.68C171.155 26.2533 172.049 25.6133 172.529 24.76C172.849 24.2267 173.009 23.7733 173.009 23.4C173.009 23.1067 172.915 22.96 172.729 22.96C172.515 22.96 172.222 23.16 171.849 23.56C171.475 23.9333 171.102 24.4 170.729 24.96C170.382 25.52 170.089 26.0933 169.849 26.68ZM182.286 30.64C181.086 30.64 180.486 29.9867 180.486 28.68C180.486 27.7733 180.873 26.6133 181.646 25.2C181.246 25.2533 180.86 25.12 180.486 24.8C180.14 24.48 179.966 24.1067 179.966 23.68C179.273 24.9867 178.233 26.2133 176.846 27.36C176.74 27.4667 176.606 27.52 176.446 27.52C176.34 27.52 176.286 27.48 176.286 27.4C176.286 27.2933 176.366 27.1867 176.526 27.08C177.726 25.9867 178.753 24.64 179.606 23.04L179.526 22.64C179.5 22.5067 179.473 22.3867 179.446 22.28C179.446 22.1467 179.446 22.0267 179.446 21.92C179.446 21.28 179.62 20.7733 179.966 20.4C180.286 20.0533 180.646 19.88 181.046 19.88C181.553 19.88 181.806 20.1467 181.806 20.68C181.806 21.3467 181.366 22.2 180.486 23.24V23.32C180.486 23.7733 180.753 24 181.286 24C181.5 24 181.753 23.9467 182.046 23.84C182.366 23.76 182.593 23.72 182.726 23.72C183.206 23.72 183.446 23.9733 183.446 24.48C183.446 24.6667 183.38 24.8667 183.246 25.08C183.06 25.3467 182.82 25.8267 182.526 26.52C182.18 27.2667 181.98 27.8133 181.926 28.16C181.9 28.2667 181.873 28.3733 181.846 28.48C181.846 28.5867 181.846 28.6933 181.846 28.8C181.846 29.4933 182.166 29.84 182.806 29.84C183.606 29.84 184.62 29.48 185.846 28.76C186.38 28.4667 186.86 28.16 187.286 27.84C187.713 27.52 188.1 27.1867 188.446 26.84C188.606 26.68 188.74 26.6 188.846 26.6C188.926 26.6 188.966 26.6533 188.966 26.76C188.966 26.8933 188.886 27.04 188.726 27.2C186.86 28.8 185.286 29.8267 184.006 30.28C183.34 30.52 182.766 30.64 182.286 30.64Z" fill="black"/>
</svg>
