<svg width="152" height="35" viewBox="0 0 152 35" fill="none" xmlns="http://www.w3.org/2000/svg">
<path d="M4.608 25.888C3.86133 25.8667 3.18933 25.792 2.592 25.664C2.016 25.536 1.52533 25.3333 1.12 25.056C0.373333 24.5653 0 23.9467 0 23.2C0 22.7947 0.106667 22.4107 0.32 22.048C1.25867 20.2773 3.65867 19.392 7.52 19.392C8.88533 19.392 9.84533 19.5307 10.4 19.808C10.6773 19.936 10.816 20.0533 10.816 20.16C10.816 20.2027 10.7733 20.224 10.688 20.224C10.6027 20.224 10.496 20.192 10.368 20.128C10.24 20.064 9.94133 20.0107 9.472 19.968C9.024 19.9253 8.39467 19.904 7.584 19.904C4.448 19.904 2.336 20.672 1.248 22.208C0.992 22.592 0.864 22.9653 0.864 23.328C0.864 23.8613 1.12 24.288 1.632 24.608C1.952 24.8213 2.34667 24.9707 2.816 25.056C3.30667 25.1627 3.872 25.216 4.512 25.216C7.47733 25.216 9.984 24.48 12.032 23.008C12.9493 22.3467 13.7813 21.5147 14.528 20.512C15.296 19.5093 15.9893 18.336 16.608 16.992C16.4587 16.9493 16.288 16.928 16.096 16.928C15.904 16.9067 15.6693 16.9067 15.392 16.928C14.1973 19.1893 12.768 20.992 11.104 22.336C9.22667 23.872 7.264 24.5867 5.216 24.48C5.152 24.4373 5.12 24.4053 5.12 24.384C5.12 24.2987 5.16267 24.256 5.248 24.256C7.168 24.2987 9.00267 23.584 10.752 22.112C12.352 20.768 13.7067 19.04 14.816 16.928C14.1333 16.9707 13.3867 17.0453 12.576 17.152C11.7653 17.2373 11.0187 17.344 10.336 17.472C9.65333 17.5787 9.16267 17.6853 8.864 17.792C8.77867 17.8133 8.69333 17.8347 8.608 17.856C8.544 17.856 8.49067 17.856 8.448 17.856C8.36267 17.856 8.32 17.824 8.32 17.76C8.32 17.7173 8.40533 17.5893 8.576 17.376C8.832 17.0987 9.06667 16.896 9.28 16.768C9.89867 16.448 11.2427 16.288 13.312 16.288C13.6107 16.288 13.9093 16.288 14.208 16.288C14.5067 16.288 14.816 16.2987 15.136 16.32C16.2027 14.1013 16.7467 12.0853 16.768 10.272C16.064 10.1653 15.3707 10.0907 14.688 10.048C14.0053 9.984 13.3333 9.952 12.672 9.952C12.4373 9.952 12.192 9.952 11.936 9.952C11.7013 9.952 11.4667 9.96267 11.232 9.984C11.2107 10.1333 11.1893 10.272 11.168 10.4C11.168 10.528 11.168 10.656 11.168 10.784C11.168 12.64 11.936 14.1013 13.472 15.168C13.5147 15.2107 13.536 15.2427 13.536 15.264C13.536 15.328 13.5147 15.3707 13.472 15.392C13.4507 15.392 13.4187 15.3707 13.376 15.328C12.48 14.7093 11.7973 13.984 11.328 13.152C10.88 12.32 10.656 11.4667 10.656 10.592C10.656 10.4853 10.656 10.3893 10.656 10.304C10.656 10.2187 10.6667 10.1333 10.688 10.048C9.19467 10.176 7.84 10.4533 6.624 10.88C5.42933 11.2853 4.48 11.7867 3.776 12.384C3.17867 12.896 2.88 13.376 2.88 13.824C2.88 14.4 3.28533 14.688 4.096 14.688C4.45867 14.688 4.84267 14.624 5.248 14.496L5.536 14.464C5.664 14.464 5.728 14.496 5.728 14.56C5.728 14.6667 5.58933 14.7627 5.312 14.848C4.84267 14.9973 4.36267 15.072 3.872 15.072C2.89067 15.072 2.25067 14.752 1.952 14.112C1.93067 14.0053 1.89867 13.9093 1.856 13.824C1.83467 13.7173 1.824 13.6213 1.824 13.536C1.824 13.024 2.08 12.48 2.592 11.904C3.40267 11.0293 4.66133 10.304 6.368 9.728C6.98667 9.51467 7.66933 9.36533 8.416 9.28C9.16267 9.17333 9.984 9.10933 10.88 9.088C11.1573 8.17067 11.6267 7.44533 12.288 6.912C12.9067 6.42133 13.5893 6.176 14.336 6.176C15.104 6.176 15.7547 6.464 16.288 7.04C16.8853 7.68 17.2053 8.56533 17.248 9.696C18.144 9.84533 19.008 10.0373 19.84 10.272C20.0533 10.0587 20.2987 9.93067 20.576 9.888C20.8533 9.888 20.992 10.016 20.992 10.272C20.992 10.3147 20.9813 10.3573 20.96 10.4C20.96 10.4427 20.9493 10.4853 20.928 10.528L20.896 10.592L22.592 11.104C23.232 11.296 23.7973 11.424 24.288 11.488C24.5867 11.5307 24.8213 11.5627 24.992 11.584C25.1627 11.6053 25.2693 11.616 25.312 11.616C25.696 11.616 25.9627 11.488 26.112 11.232C26.1547 11.1893 26.1973 11.168 26.24 11.168C26.368 11.168 26.432 11.2213 26.432 11.328C26.432 11.3707 26.4213 11.4027 26.4 11.424C26.1013 11.8507 25.6 12.064 24.896 12.064C24.2773 12.064 23.552 11.9573 22.72 11.744L20.608 11.136L18.016 16.544L19.488 16.832C20 16.896 20.4267 17.0133 20.768 17.184C20.9387 17.2907 21.024 17.3653 21.024 17.408C21.024 17.4507 20.9387 17.472 20.768 17.472C20.4907 17.472 20.0107 17.408 19.328 17.28C18.9653 17.1947 18.656 17.1413 18.4 17.12C18.144 17.0773 17.9627 17.0453 17.856 17.024C16.5973 19.8827 14.8053 22.0907 12.48 23.648C10.1547 25.184 7.53067 25.9307 4.608 25.888ZM16.768 9.6C16.7467 8.61867 16.48 7.808 15.968 7.168C15.52 6.63467 14.976 6.368 14.336 6.368C13.7173 6.368 13.152 6.592 12.64 7.04C12.0853 7.53067 11.68 8.21333 11.424 9.088C12.2773 9.10933 13.1413 9.16267 14.016 9.248C14.912 9.312 15.8293 9.42933 16.768 9.6ZM16.928 16.448C17.0133 16.32 17.1413 16.032 17.312 15.584C17.504 15.136 17.7387 14.5387 18.016 13.792C18.2933 13.088 18.5493 12.4907 18.784 12C19.0187 11.488 19.232 11.0827 19.424 10.784C19.0827 10.6987 18.7307 10.624 18.368 10.56C18.0053 10.4747 17.6427 10.4107 17.28 10.368C17.2373 12.224 16.6933 14.2187 15.648 16.352L16.928 16.448ZM22.4393 24.576C21.5646 24.576 21.1273 24.064 21.1273 23.04C21.1273 22.272 21.3193 21.376 21.7033 20.352C21.6819 20.2453 21.6606 20.1387 21.6393 20.032C21.6393 19.904 21.6393 19.776 21.6393 19.648C21.6393 18.5173 22.1833 17.9093 23.2713 17.824C23.5486 17.4827 23.8046 17.312 24.0393 17.312C24.4233 17.312 24.6153 17.4187 24.6153 17.632C24.6153 17.696 24.5833 17.76 24.5193 17.824L24.4233 17.92C24.9139 18.0693 25.3193 18.3467 25.6393 18.752C25.9593 19.1573 26.1193 19.5947 26.1193 20.064C26.1193 20.896 25.8953 21.7173 25.4473 22.528L25.3833 22.592C26.6419 22.5493 27.6553 22.1333 28.4233 21.344C28.4873 21.28 28.5619 21.248 28.6473 21.248C28.7113 21.248 28.7433 21.3013 28.7433 21.408C28.7433 21.5147 28.6793 21.6213 28.5513 21.728C27.5486 22.6027 26.3966 23.04 25.0953 23.04C24.7326 23.488 24.3059 23.8507 23.8153 24.128C23.3246 24.4267 22.8659 24.576 22.4393 24.576ZM24.7433 22.56C25.2126 21.6853 25.4473 20.8427 25.4473 20.032C25.4473 19.5413 25.3299 19.1253 25.0953 18.784C24.8606 18.4427 24.5406 18.2507 24.1353 18.208C23.4953 18.912 22.9833 19.7333 22.5993 20.672C22.8553 21.7813 23.5699 22.4107 24.7433 22.56ZM22.8873 24C23.4846 24 24.0179 23.6693 24.4873 23.008C23.5059 22.88 22.7593 22.4747 22.2473 21.792C22.2046 22.0053 22.1619 22.208 22.1193 22.4C22.0979 22.592 22.0872 22.7627 22.0872 22.912C22.0872 23.6373 22.3539 24 22.8873 24ZM28.0945 24.032C27.9452 24.032 27.8172 23.968 27.7105 23.84C27.6038 23.712 27.5612 23.6053 27.5825 23.52L28.5425 21.312C29.0972 20.0107 29.3745 19.2213 29.3745 18.944C29.4385 18.8587 29.6518 18.7307 30.0145 18.56C30.0998 18.5173 30.1745 18.4853 30.2385 18.464C30.3025 18.4427 30.3665 18.432 30.4305 18.432C30.5798 18.432 30.6545 18.528 30.6545 18.72C30.5052 19.1467 30.2812 19.7013 29.9825 20.384C29.7052 21.0453 29.3425 21.8453 28.8945 22.784L32.3185 19.104C32.6172 18.784 32.8412 18.624 32.9905 18.624C33.0972 18.624 33.1505 18.688 33.1505 18.816C33.1505 18.8587 33.1398 18.912 33.1185 18.976C33.1185 19.0187 33.1078 19.072 33.0865 19.136C32.6385 20.6933 32.4145 21.76 32.4145 22.336C32.4145 23.0613 32.6598 23.424 33.1505 23.424C33.5985 23.424 34.1318 23.1787 34.7505 22.688C34.8572 22.6027 35.0172 22.4533 35.2305 22.24C35.4652 22.0267 35.7425 21.7493 36.0625 21.408C36.1478 21.3227 36.2332 21.28 36.3185 21.28C36.3825 21.28 36.4145 21.3227 36.4145 21.408C36.4358 21.4507 36.4145 21.5253 36.3505 21.632C35.0065 23.1253 33.8118 23.872 32.7665 23.872C31.8278 23.872 31.3585 23.136 31.3585 21.664C31.3585 21.4933 31.3585 21.3227 31.3585 21.152C31.3798 20.9813 31.4012 20.8 31.4225 20.608L29.9185 22.048C29.7478 22.1973 29.5772 22.3573 29.4065 22.528C29.2572 22.6987 29.1185 22.8693 28.9905 23.04L28.3505 23.84C28.2865 23.968 28.2012 24.032 28.0945 24.032ZM36.262 24.032C35.7713 24.032 35.526 23.712 35.526 23.072C35.526 22.56 35.718 22.0053 36.102 21.408C36.5287 20.7253 37.1047 20.0853 37.83 19.488C38.7473 18.6987 39.5047 18.336 40.102 18.4C40.678 16.8427 41.2967 15.4133 41.958 14.112C42.8967 12.2773 43.75 11.1147 44.518 10.624C44.8807 10.3893 45.254 10.272 45.638 10.272C46.2567 10.272 46.566 10.592 46.566 11.232C46.566 12.3627 45.8833 13.7493 44.518 15.392C44.0487 15.9893 43.5153 16.576 42.918 17.152C42.342 17.728 41.7127 18.3147 41.03 18.912C40.774 19.5733 40.5713 20.1707 40.422 20.704C40.294 21.2373 40.2193 21.7173 40.198 22.144C40.2833 22.9973 40.678 23.424 41.382 23.424C42.214 23.424 43.2487 22.7733 44.486 21.472C44.5927 21.344 44.678 21.28 44.742 21.28C44.806 21.28 44.838 21.3227 44.838 21.408C44.838 21.4933 44.806 21.5893 44.742 21.696C43.3127 23.232 42.0647 24 40.998 24C40.486 24 40.07 23.776 39.75 23.328C39.4087 22.8587 39.2273 22.2933 39.206 21.632C38.6727 22.336 38.1393 22.9227 37.606 23.392C37.0513 23.8187 36.6033 24.032 36.262 24.032ZM41.286 18.272C42.374 17.2267 43.334 16.096 44.166 14.88C45.2327 13.344 45.83 12.1387 45.958 11.264V11.104C45.958 10.848 45.8727 10.72 45.702 10.72C45.2753 10.72 44.838 11.1147 44.39 11.904C43.814 12.9067 43.27 13.9413 42.758 15.008C42.246 16.0747 41.7553 17.1627 41.286 18.272ZM36.934 23.072C37.1687 23.072 37.478 22.912 37.862 22.592C38.566 21.9947 39.0247 21.408 39.238 20.832C39.5793 19.7867 39.8033 19.2 39.91 19.072C39.334 19.0293 38.758 19.2533 38.182 19.744C37.6487 20.1493 37.222 20.6933 36.902 21.376C36.6673 21.8027 36.55 22.1867 36.55 22.528C36.55 22.8907 36.678 23.072 36.934 23.072ZM44.6995 24.032C44.2088 24.032 43.9635 23.712 43.9635 23.072C43.9635 22.56 44.1555 22.0053 44.5395 21.408C45.4355 20.064 46.4062 19.1573 47.4515 18.688C47.8995 18.4747 48.3368 18.368 48.7635 18.368C48.9768 18.368 49.2115 18.432 49.4675 18.56C49.7235 18.6667 49.8515 18.8267 49.8515 19.04C49.8515 19.1467 49.7768 19.2107 49.6275 19.232C49.5422 19.2533 49.4782 19.2747 49.4355 19.296C49.4142 19.3173 49.3928 19.3387 49.3715 19.36C48.8808 20.2773 48.6355 21.1307 48.6355 21.92C48.6355 22.9227 49.0302 23.424 49.8195 23.424C50.6515 23.424 51.6862 22.7733 52.9235 21.472C53.0302 21.344 53.1155 21.28 53.1795 21.28C53.2435 21.28 53.2755 21.3227 53.2755 21.408C53.2755 21.4933 53.2435 21.5893 53.1795 21.696C51.7502 23.232 50.5022 24 49.4355 24C48.9235 24 48.5075 23.776 48.1875 23.328C47.8462 22.8587 47.6648 22.2933 47.6435 21.632C47.1102 22.336 46.5768 22.9227 46.0435 23.392C45.4888 23.8187 45.0408 24.032 44.6995 24.032ZM45.3715 23.072C45.6062 23.072 45.9155 22.912 46.2995 22.592C46.6408 22.2933 46.9288 22.0053 47.1635 21.728C47.3982 21.4293 47.5688 21.1307 47.6755 20.832C47.7182 20.4693 47.7822 20.1493 47.8675 19.872C47.9742 19.5733 48.0808 19.3067 48.1875 19.072C47.0782 19.0507 46.1288 19.8187 45.3395 21.376C45.1048 21.8027 44.9875 22.1867 44.9875 22.528C44.9875 22.8907 45.1155 23.072 45.3715 23.072ZM54.801 24C53.9477 23.9787 53.425 23.5413 53.233 22.688C53.2117 22.5387 53.1903 22.4 53.169 22.272C53.169 22.144 53.169 22.016 53.169 21.888C53.169 21.0773 53.393 20.1493 53.841 19.104C53.5637 19.1253 53.361 19.136 53.233 19.136C53.105 19.136 53.0623 19.1467 53.105 19.168C52.7637 19.1253 52.593 18.9867 52.593 18.752V18.688C52.593 18.5387 52.7423 18.464 53.041 18.464L53.617 18.432H54.193C54.2783 18.2613 54.4063 18.016 54.577 17.696C54.7477 17.3547 54.9717 16.9493 55.249 16.48C55.3983 16.224 55.569 15.936 55.761 15.616C55.9743 15.296 56.1983 14.9547 56.433 14.592C56.7317 14.336 57.0943 14.208 57.521 14.208C57.905 14.208 58.097 14.304 58.097 14.496C58.097 14.5387 58.0757 14.5813 58.033 14.624C57.7557 15.008 57.4037 15.52 56.977 16.16C56.5503 16.8 56.049 17.5573 55.473 18.432H58.609C58.801 18.496 58.897 18.5813 58.897 18.688C58.897 18.88 58.6623 19.008 58.193 19.072C58.1077 19.0933 57.809 19.104 57.297 19.104C56.785 19.104 56.0597 19.104 55.121 19.104C54.4597 20.3413 54.129 21.344 54.129 22.112C54.129 22.9867 54.5023 23.424 55.249 23.424C55.6117 23.424 56.0063 23.3067 56.433 23.072C56.7317 22.9013 57.041 22.688 57.361 22.432C57.681 22.1547 58.0117 21.8347 58.353 21.472C58.4597 21.344 58.5557 21.28 58.641 21.28C58.7263 21.28 58.769 21.3227 58.769 21.408C58.769 21.5147 58.737 21.6 58.673 21.664C57.1797 23.2427 55.889 24.0213 54.801 24ZM62.4138 16C62.2218 16 62.0404 15.9253 61.8698 15.776C61.7204 15.6053 61.6458 15.424 61.6458 15.232C61.6458 14.976 61.7631 14.7627 61.9978 14.592C62.1684 14.4427 62.3604 14.368 62.5738 14.368C63.0644 14.368 63.3098 14.5813 63.3098 15.008C63.3098 15.6693 63.0111 16 62.4138 16ZM60.2698 24C59.0324 23.9787 58.4778 23.1253 58.6058 21.44C58.6271 20.7147 59.0218 19.7867 59.7898 18.656C59.9178 18.4213 60.1951 18.304 60.6218 18.304C60.9418 18.304 61.1018 18.4 61.1018 18.592L61.0698 18.752L60.2698 20.128C59.9498 20.7253 59.7791 21.184 59.7578 21.504C59.7364 21.6107 59.7151 21.728 59.6938 21.856C59.6938 21.9627 59.6938 22.0693 59.6938 22.176C59.6938 23.0507 60.0031 23.488 60.6218 23.488C61.4751 23.488 62.5418 22.816 63.8218 21.472C63.9498 21.3227 64.0564 21.248 64.1418 21.248C64.2058 21.2693 64.2378 21.3227 64.2378 21.408C64.2378 21.472 64.2058 21.5573 64.1418 21.664C62.6484 23.264 61.3578 24.0427 60.2698 24ZM64.9705 24.576C64.0958 24.576 63.6585 24.064 63.6585 23.04C63.6585 22.272 63.8505 21.376 64.2345 20.352C64.2132 20.2453 64.1918 20.1387 64.1705 20.032C64.1705 19.904 64.1705 19.776 64.1705 19.648C64.1705 18.5173 64.7145 17.9093 65.8025 17.824C66.0798 17.4827 66.3358 17.312 66.5705 17.312C66.9545 17.312 67.1465 17.4187 67.1465 17.632C67.1465 17.696 67.1145 17.76 67.0505 17.824L66.9545 17.92C67.4452 18.0693 67.8505 18.3467 68.1705 18.752C68.4905 19.1573 68.6505 19.5947 68.6505 20.064C68.6505 20.896 68.4265 21.7173 67.9785 22.528L67.9145 22.592C69.1732 22.5493 70.1865 22.1333 70.9545 21.344C71.0185 21.28 71.0932 21.248 71.1785 21.248C71.2425 21.248 71.2745 21.3013 71.2745 21.408C71.2745 21.5147 71.2105 21.6213 71.0825 21.728C70.0798 22.6027 68.9278 23.04 67.6265 23.04C67.2638 23.488 66.8372 23.8507 66.3465 24.128C65.8558 24.4267 65.3972 24.576 64.9705 24.576ZM67.2745 22.56C67.7438 21.6853 67.9785 20.8427 67.9785 20.032C67.9785 19.5413 67.8612 19.1253 67.6265 18.784C67.3918 18.4427 67.0718 18.2507 66.6665 18.208C66.0265 18.912 65.5145 19.7333 65.1305 20.672C65.3865 21.7813 66.1012 22.4107 67.2745 22.56ZM65.4185 24C66.0158 24 66.5492 23.6693 67.0185 23.008C66.0372 22.88 65.2905 22.4747 64.7785 21.792C64.7358 22.0053 64.6932 22.208 64.6505 22.4C64.6292 22.592 64.6185 22.7627 64.6185 22.912C64.6185 23.6373 64.8852 24 65.4185 24ZM70.6258 24.032C70.4764 24.032 70.3484 23.968 70.2417 23.84C70.1351 23.712 70.0924 23.6053 70.1137 23.52L71.0738 21.312C71.6284 20.0107 71.9058 19.2213 71.9058 18.944C71.9698 18.8587 72.1831 18.7307 72.5458 18.56C72.6311 18.5173 72.7058 18.4853 72.7698 18.464C72.8338 18.4427 72.8978 18.432 72.9618 18.432C73.1111 18.432 73.1858 18.528 73.1858 18.72C73.0364 19.1467 72.8124 19.7013 72.5138 20.384C72.2364 21.0453 71.8738 21.8453 71.4258 22.784L74.8498 19.104C75.1484 18.784 75.3724 18.624 75.5218 18.624C75.6284 18.624 75.6818 18.688 75.6818 18.816C75.6818 18.8587 75.6711 18.912 75.6498 18.976C75.6498 19.0187 75.6391 19.072 75.6178 19.136C75.1698 20.6933 74.9458 21.76 74.9458 22.336C74.9458 23.0613 75.1911 23.424 75.6818 23.424C76.1298 23.424 76.6631 23.1787 77.2818 22.688C77.3884 22.6027 77.5484 22.4533 77.7618 22.24C77.9964 22.0267 78.2738 21.7493 78.5938 21.408C78.6791 21.3227 78.7644 21.28 78.8498 21.28C78.9138 21.28 78.9458 21.3227 78.9458 21.408C78.9671 21.4507 78.9458 21.5253 78.8818 21.632C77.5378 23.1253 76.3431 23.872 75.2977 23.872C74.3591 23.872 73.8898 23.136 73.8898 21.664C73.8898 21.4933 73.8898 21.3227 73.8898 21.152C73.9111 20.9813 73.9324 20.8 73.9538 20.608L72.4498 22.048C72.2791 22.1973 72.1084 22.3573 71.9378 22.528C71.7884 22.6987 71.6498 22.8693 71.5218 23.04L70.8818 23.84C70.8178 23.968 70.7324 24.032 70.6258 24.032ZM95.8965 25.024C94.3392 25.024 93.0058 24.7787 91.8965 24.288C90.7872 23.8187 89.9338 23.168 89.3365 22.336C88.7392 21.4827 88.4405 20.5227 88.4405 19.456C88.4405 18.432 88.7285 17.344 89.3045 16.192C88.2378 15.552 87.7045 14.6133 87.7045 13.376C87.7045 12.16 88.2165 11.1893 89.2405 10.464C90.2432 9.71733 91.4805 9.344 92.9525 9.344C94.0618 9.344 95.2032 9.536 96.3765 9.92C99.0005 8.68267 101.678 8.064 104.409 8.064C105.881 8.064 106.99 8.37333 107.737 8.992C108.355 9.504 108.665 10.1653 108.665 10.976C108.665 11.552 108.526 12.0853 108.249 12.576C107.822 13.3653 107.182 14.112 106.329 14.816C105.497 15.4987 104.451 16.1387 103.193 16.736L103.161 16.768C103.033 16.8107 102.947 16.832 102.905 16.832C102.862 16.832 102.841 16.8107 102.841 16.768C102.841 16.6827 102.894 16.5973 103.001 16.512C103.107 16.2987 103.161 16.096 103.161 15.904C103.161 15.2853 102.777 14.5493 102.009 13.696C101.731 13.3973 101.465 13.1307 101.209 12.896C100.953 12.6613 100.697 12.4587 100.441 12.288C99.9072 11.9253 99.3738 11.5947 98.8405 11.296C98.3072 10.9973 97.7632 10.7413 97.2085 10.528C94.5632 11.68 92.4938 13.248 91.0005 15.232C90.8512 15.3813 90.7125 15.5413 90.5845 15.712C90.4778 15.8827 90.3712 16.0533 90.2645 16.224C91.1605 16.5867 92.0778 16.768 93.0165 16.768C94.2325 16.768 94.9472 16.544 95.1605 16.096C95.1605 16.0533 95.1818 16.032 95.2245 16.032C95.2885 16.032 95.3312 16.0533 95.3525 16.096C95.3952 16.1387 95.3952 16.1813 95.3525 16.224C95.2245 16.48 94.9045 16.6827 94.3925 16.832C93.9018 16.9813 93.3258 17.056 92.6645 17.056C91.7472 17.056 90.8725 16.9067 90.0405 16.608C89.3792 17.7173 89.0485 18.7733 89.0485 19.776C89.0485 21.1413 89.6885 22.2293 90.9685 23.04C92.2485 23.8293 93.9658 24.224 96.1205 24.224C96.6538 24.224 97.2085 24.192 97.7845 24.128C99.4058 23.9573 100.707 23.7653 101.689 23.552C103.545 23.0613 104.985 22.336 106.009 21.376C106.094 21.2907 106.158 21.248 106.201 21.248C106.286 21.248 106.329 21.312 106.329 21.44C106.307 21.504 106.254 21.6 106.169 21.728C105.294 22.4747 103.907 23.1893 102.009 23.872C101.219 24.1493 100.483 24.3627 99.8005 24.512C99.1178 24.6827 98.4672 24.8107 97.8485 24.896C97.5072 24.9387 97.1658 24.9707 96.8245 24.992C96.5045 25.0133 96.1952 25.024 95.8965 25.024ZM103.513 16.192C103.982 15.936 104.387 15.7013 104.729 15.488C105.091 15.2747 105.379 15.0933 105.593 14.944C106.489 14.2613 107.129 13.5147 107.513 12.704C107.726 12.2773 107.833 11.8507 107.833 11.424C107.833 10.6347 107.449 10.0373 106.681 9.632C105.955 9.248 104.963 9.056 103.705 9.056C101.785 9.056 99.7365 9.49333 97.5605 10.368C98.0938 10.5813 98.6058 10.8373 99.0965 11.136C99.6085 11.4133 100.11 11.7333 100.601 12.096C101.283 12.5867 101.902 13.1413 102.457 13.76C103.182 14.5707 103.545 15.2747 103.545 15.872C103.545 15.9147 103.545 15.968 103.545 16.032C103.545 16.096 103.534 16.1493 103.513 16.192ZM89.4965 15.808C89.6245 15.5733 89.7632 15.3493 89.9125 15.136C90.0618 14.9013 90.2218 14.6773 90.3925 14.464C91.7792 12.736 93.6245 11.2853 95.9285 10.112C94.9685 9.856 94.0192 9.728 93.0805 9.728C91.7152 9.728 90.5098 10.0693 89.4645 10.752C88.5045 11.392 88.0245 12.2347 88.0245 13.28C88.0245 14.368 88.5152 15.2107 89.4965 15.808ZM106.137 24.032C105.646 24.032 105.401 23.712 105.401 23.072C105.401 22.56 105.593 22.0053 105.977 21.408C106.873 20.064 107.844 19.1573 108.889 18.688C109.337 18.4747 109.774 18.368 110.201 18.368C110.414 18.368 110.649 18.432 110.905 18.56C111.161 18.6667 111.289 18.8267 111.289 19.04C111.289 19.1467 111.214 19.2107 111.065 19.232C110.98 19.2533 110.916 19.2747 110.873 19.296C110.852 19.3173 110.83 19.3387 110.809 19.36C110.318 20.2773 110.073 21.1307 110.073 21.92C110.073 22.9227 110.468 23.424 111.257 23.424C112.089 23.424 113.124 22.7733 114.361 21.472C114.468 21.344 114.553 21.28 114.617 21.28C114.681 21.28 114.713 21.3227 114.713 21.408C114.713 21.4933 114.681 21.5893 114.617 21.696C113.188 23.232 111.94 24 110.873 24C110.361 24 109.945 23.776 109.625 23.328C109.284 22.8587 109.102 22.2933 109.081 21.632C108.548 22.336 108.014 22.9227 107.481 23.392C106.926 23.8187 106.478 24.032 106.137 24.032ZM106.809 23.072C107.044 23.072 107.353 22.912 107.737 22.592C108.078 22.2933 108.366 22.0053 108.601 21.728C108.836 21.4293 109.006 21.1307 109.113 20.832C109.156 20.4693 109.22 20.1493 109.305 19.872C109.412 19.5733 109.518 19.3067 109.625 19.072C108.516 19.0507 107.566 19.8187 106.777 21.376C106.542 21.8027 106.425 22.1867 106.425 22.528C106.425 22.8907 106.553 23.072 106.809 23.072ZM118.766 24.512C117.807 24.512 117.327 23.9893 117.327 22.944C117.327 22.2187 117.636 21.2907 118.255 20.16C117.935 20.2027 117.625 20.096 117.327 19.84C117.049 19.584 116.911 19.2853 116.911 18.944C116.356 19.9893 115.524 20.9707 114.415 21.888C114.329 21.9733 114.223 22.016 114.095 22.016C114.009 22.016 113.966 21.984 113.966 21.92C113.966 21.8347 114.03 21.7493 114.159 21.664C115.119 20.7893 115.94 19.712 116.623 18.432L116.559 18.112C116.537 18.0053 116.516 17.9093 116.495 17.824C116.495 17.7173 116.495 17.6213 116.495 17.536C116.495 17.024 116.633 16.6187 116.911 16.32C117.167 16.0427 117.455 15.904 117.775 15.904C118.18 15.904 118.383 16.1173 118.383 16.544C118.383 17.0773 118.031 17.76 117.327 18.592V18.656C117.327 19.0187 117.54 19.2 117.967 19.2C118.137 19.2 118.34 19.1573 118.575 19.072C118.831 19.008 119.012 18.976 119.119 18.976C119.503 18.976 119.695 19.1787 119.695 19.584C119.695 19.7333 119.641 19.8933 119.535 20.064C119.385 20.2773 119.193 20.6613 118.959 21.216C118.681 21.8133 118.521 22.2507 118.479 22.528C118.457 22.6133 118.436 22.6987 118.415 22.784C118.415 22.8693 118.415 22.9547 118.415 23.04C118.415 23.5947 118.671 23.872 119.183 23.872C119.823 23.872 120.633 23.584 121.615 23.008C122.041 22.7733 122.425 22.528 122.767 22.272C123.108 22.016 123.417 21.7493 123.695 21.472C123.823 21.344 123.929 21.28 124.015 21.28C124.079 21.28 124.111 21.3227 124.111 21.408C124.111 21.5147 124.047 21.632 123.919 21.76C122.425 23.04 121.167 23.8613 120.143 24.224C119.609 24.416 119.151 24.512 118.766 24.512ZM125.614 24C124.76 23.9787 124.238 23.5413 124.046 22.688C124.024 22.5387 124.003 22.4 123.982 22.272C123.982 22.144 123.982 22.016 123.982 21.888C123.982 21.0773 124.206 20.1493 124.654 19.104C124.376 19.1253 124.174 19.136 124.046 19.136C123.918 19.136 123.875 19.1467 123.918 19.168C123.576 19.1253 123.405 18.9867 123.405 18.752V18.688C123.405 18.5387 123.555 18.464 123.854 18.464L124.43 18.432H125.006C125.091 18.2613 125.219 18.016 125.39 17.696C125.56 17.3547 125.784 16.9493 126.062 16.48C126.211 16.224 126.382 15.936 126.574 15.616C126.787 15.296 127.011 14.9547 127.246 14.592C127.544 14.336 127.907 14.208 128.334 14.208C128.718 14.208 128.91 14.304 128.91 14.496C128.91 14.5387 128.888 14.5813 128.846 14.624C128.568 15.008 128.216 15.52 127.79 16.16C127.363 16.8 126.862 17.5573 126.286 18.432H129.422C129.614 18.496 129.71 18.5813 129.71 18.688C129.71 18.88 129.475 19.008 129.006 19.072C128.92 19.0933 128.622 19.104 128.11 19.104C127.598 19.104 126.872 19.104 125.934 19.104C125.272 20.3413 124.942 21.344 124.942 22.112C124.942 22.9867 125.315 23.424 126.062 23.424C126.424 23.424 126.819 23.3067 127.246 23.072C127.544 22.9013 127.854 22.688 128.174 22.432C128.494 22.1547 128.824 21.8347 129.166 21.472C129.272 21.344 129.368 21.28 129.454 21.28C129.539 21.28 129.582 21.3227 129.582 21.408C129.582 21.5147 129.55 21.6 129.486 21.664C127.992 23.2427 126.702 24.0213 125.614 24ZM133.226 16C133.034 16 132.853 15.9253 132.682 15.776C132.533 15.6053 132.458 15.424 132.458 15.232C132.458 14.976 132.576 14.7627 132.81 14.592C132.981 14.4427 133.173 14.368 133.386 14.368C133.877 14.368 134.122 14.5813 134.122 15.008C134.122 15.6693 133.824 16 133.226 16ZM131.082 24C129.845 23.9787 129.29 23.1253 129.418 21.44C129.44 20.7147 129.834 19.7867 130.602 18.656C130.73 18.4213 131.008 18.304 131.434 18.304C131.754 18.304 131.914 18.4 131.914 18.592L131.882 18.752L131.082 20.128C130.762 20.7253 130.592 21.184 130.57 21.504C130.549 21.6107 130.528 21.728 130.506 21.856C130.506 21.9627 130.506 22.0693 130.506 22.176C130.506 23.0507 130.816 23.488 131.434 23.488C132.288 23.488 133.354 22.816 134.634 21.472C134.762 21.3227 134.869 21.248 134.954 21.248C135.018 21.2693 135.05 21.3227 135.05 21.408C135.05 21.472 135.018 21.5573 134.954 21.664C133.461 23.264 132.17 24.0427 131.082 24ZM136.423 24.288C135.186 24.288 134.567 23.6053 134.567 22.24C134.567 21.7707 134.738 21.184 135.079 20.48C135.42 19.7547 135.836 19.1573 136.327 18.688C136.924 18.1333 137.468 17.856 137.959 17.856C138.62 17.856 138.951 18.1867 138.951 18.848C138.951 19.2747 138.78 19.7013 138.439 20.128C137.799 20.896 136.903 21.4187 135.751 21.696C135.73 21.8453 135.708 21.984 135.687 22.112C135.687 22.2187 135.687 22.3253 135.687 22.432C135.687 23.328 136.103 23.776 136.935 23.776C137.596 23.776 138.428 23.4987 139.431 22.944C139.858 22.7093 140.242 22.464 140.583 22.208C140.924 21.952 141.212 21.7067 141.447 21.472C141.703 21.1733 141.831 21.152 141.831 21.408C141.831 21.5147 141.788 21.6107 141.703 21.696C141.468 21.9733 141.159 22.2613 140.775 22.56C140.412 22.8373 139.964 23.1147 139.431 23.392C138.3 23.9893 137.298 24.288 136.423 24.288ZM135.879 21.344C136.924 21.0027 137.639 20.4907 138.023 19.808C138.279 19.3813 138.407 19.0187 138.407 18.72C138.407 18.4853 138.332 18.368 138.183 18.368C138.012 18.368 137.778 18.528 137.479 18.848C137.18 19.1467 136.882 19.52 136.583 19.968C136.306 20.416 136.071 20.8747 135.879 21.344ZM145.829 24.512C144.869 24.512 144.389 23.9893 144.389 22.944C144.389 22.2187 144.698 21.2907 145.317 20.16C144.997 20.2027 144.688 20.096 144.389 19.84C144.112 19.584 143.973 19.2853 143.973 18.944C143.418 19.9893 142.586 20.9707 141.477 21.888C141.392 21.9733 141.285 22.016 141.157 22.016C141.072 22.016 141.029 21.984 141.029 21.92C141.029 21.8347 141.093 21.7493 141.221 21.664C142.181 20.7893 143.002 19.712 143.685 18.432L143.621 18.112C143.6 18.0053 143.578 17.9093 143.557 17.824C143.557 17.7173 143.557 17.6213 143.557 17.536C143.557 17.024 143.696 16.6187 143.973 16.32C144.229 16.0427 144.517 15.904 144.837 15.904C145.242 15.904 145.445 16.1173 145.445 16.544C145.445 17.0773 145.093 17.76 144.389 18.592V18.656C144.389 19.0187 144.602 19.2 145.029 19.2C145.2 19.2 145.402 19.1573 145.637 19.072C145.893 19.008 146.074 18.976 146.181 18.976C146.565 18.976 146.757 19.1787 146.757 19.584C146.757 19.7333 146.704 19.8933 146.597 20.064C146.448 20.2773 146.256 20.6613 146.021 21.216C145.744 21.8133 145.584 22.2507 145.541 22.528C145.52 22.6133 145.498 22.6987 145.477 22.784C145.477 22.8693 145.477 22.9547 145.477 23.04C145.477 23.5947 145.733 23.872 146.245 23.872C146.885 23.872 147.696 23.584 148.677 23.008C149.104 22.7733 149.488 22.528 149.829 22.272C150.17 22.016 150.48 21.7493 150.757 21.472C150.885 21.344 150.992 21.28 151.077 21.28C151.141 21.28 151.173 21.3227 151.173 21.408C151.173 21.5147 151.109 21.632 150.981 21.76C149.488 23.04 148.229 23.8613 147.205 24.224C146.672 24.416 146.213 24.512 145.829 24.512Z" fill="black"/>
</svg>
